<svg version="1.1" id="Layer_1" xmlns="http://www.w3.org/2000/svg" x="0" y="0" viewBox="0 0 26 14" style="enable-background:new 0 0 26 14" xml:space="preserve">
  <g id="Group_124" transform="translate(-194 -830)">
    <path class="st0" d="M219 838h-24c-.6 0-1-.4-1-1s.4-1 1-1h24c.6 0 1 .4 1 1s-.4 1-1 1z" id="Line_26"/>
    <path class="st0" d="M219 832h-12c-.6 0-1-.4-1-1s.4-1 1-1h12c.6 0 1 .4 1 1s-.4 1-1 1z" id="Line_27"/>
    <path class="st0" d="M207 844h-12c-.6 0-1-.4-1-1s.4-1 1-1h12c.6 0 1 .4 1 1s-.4 1-1 1z" id="Line_28"/>
  </g>
</svg>
