<?xml version="1.0" encoding="utf-8"?>
<!-- Generator: Adobe Illustrator 25.2.3, SVG Export Plug-In . SVG Version: 6.00 Build 0)  -->
<svg version="1.1" id="Layer_1" xmlns="http://www.w3.org/2000/svg" xmlns:xlink="http://www.w3.org/1999/xlink" x="0px" y="0px"
	 viewBox="0 0 25.5 13.5" style="enable-background:new 0 0 25.5 13.5;" xml:space="preserve">
<style type="text/css">
	.st0{fill:#A7A7A7;}
</style>
<g id="Group_124" transform="translate(-194.25 -830.25)">
	<g id="Line_26">
		<path class="st0" d="M219,837.8h-24c-0.4,0-0.8-0.3-0.8-0.8s0.3-0.8,0.8-0.8h24c0.4,0,0.8,0.3,0.8,0.8S219.4,837.8,219,837.8z"/>
	</g>
	<g id="Line_27">
		<path class="st0" d="M219,831.8h-12c-0.4,0-0.8-0.3-0.8-0.8s0.3-0.8,0.8-0.8h12c0.4,0,0.8,0.3,0.8,0.8S219.4,831.8,219,831.8z"/>
	</g>
	<g id="Line_28">
		<path class="st0" d="M207,843.8h-12c-0.4,0-0.8-0.3-0.8-0.8s0.3-0.8,0.8-0.8h12c0.4,0,0.8,0.3,0.8,0.8S207.4,843.8,207,843.8z"/>
	</g>
</g>
</svg>
