<?xml version="1.0" encoding="utf-8"?>
<!-- Generator: Adobe Illustrator 25.2.3, SVG Export Plug-In . SVG Version: 6.00 Build 0)  -->
<svg version="1.1" id="Layer_1" xmlns="http://www.w3.org/2000/svg" xmlns:xlink="http://www.w3.org/1999/xlink" x="0px" y="0px"
	 viewBox="0 0 18.5 26.3" style="enable-background:new 0 0 18.5 26.3;" xml:space="preserve">
<style type="text/css">
	.st0{fill:#1A1A1A;}
</style>
<g id="Path_124">
	<path class="st0" d="M9.3,26.2c-1.6,0-3.3-0.5-4.8-1.4c-2.8-1.7-4.3-4.5-4.4-7.9C0,10.3,5.2,2.6,8.6,0.4C9.3-0.1,9.9,0,10.2,0.2
		c0.8,0.5,0.6,1.4,0.4,3C10.3,4.6,9.8,7,10.5,8c0.1,0.2,0.3,0.4,0.8,0.5c0.4,0.1,0.5,0.1,1-0.9c0.3-0.6,0.9-1.7,2.1-1.4
		c1.7,0.5,3.3,6.7,3.6,7.9c1.2,3.8-0.1,7.7-3.2,10.2C13.1,25.5,11.2,26.2,9.3,26.2z M8.5,3.1C5.8,5.7,2,11.7,2.1,16.9
		c0,2.8,1.2,4.9,3.4,6.2c3.1,1.9,6.2,1,8.1-0.4c1.9-1.5,3.6-4.4,2.5-8.1c-0.5-2.2-1.4-4.7-2-6c-0.4,0.8-1.2,2.3-3.1,1.8
		c-0.9-0.2-1.6-0.6-2.1-1.3C7.8,7.6,8.1,5,8.5,3.1z"/>
</g>
</svg>
