<?xml version="1.0" encoding="utf-8"?>
<!-- Generator: Adobe Illustrator 25.2.3, SVG Export Plug-In . SVG Version: 6.00 Build 0)  -->
<svg version="1.1" id="Layer_1" xmlns="http://www.w3.org/2000/svg" xmlns:xlink="http://www.w3.org/1999/xlink" x="0px" y="0px"
	 viewBox="0 0 18 25.8" style="enable-background:new 0 0 18 25.8;" xml:space="preserve">
<style type="text/css">
	.st0{fill:#A7A7A7;}
</style>
<g id="Path_124">
	<path class="st0" d="M9,25.7c-1.6,0-3.2-0.4-4.7-1.4c-2.8-1.7-4.2-4.3-4.3-7.7c-0.1-6.3,5-14,8.5-16.3C9,0,9.4-0.1,9.8,0.1
		c0.7,0.4,0.5,1.2,0.2,2.7c-0.3,1.6-0.7,4,0,5.1c0.2,0.3,0.5,0.5,1,0.6c0.6,0.1,0.8-0.1,1.3-1c0.3-0.6,0.8-1.6,1.8-1.3
		c1.6,0.5,3.3,7.4,3.4,7.7c1.1,3.7-0.1,7.5-3.1,9.9C12.8,25.1,10.9,25.7,9,25.7z M8.6,2.1c-3.1,2.6-7.1,9.2-7.1,14.5
		c0,2.9,1.2,5,3.5,6.4c2.7,1.6,5.9,1.5,8.3-0.4c2-1.5,3.7-4.5,2.6-8.3c-0.6-2.5-1.7-5.4-2.2-6.4c-0.1,0.1-0.1,0.2-0.1,0.3
		c-0.4,0.8-1.1,2.3-2.9,1.8C9.9,9.9,9.3,9.4,8.8,8.8C7.7,7.2,8.2,4.5,8.6,2.5C8.6,2.4,8.6,2.3,8.6,2.1z M13.6,7.6L13.6,7.6L13.6,7.6
		z"/>
</g>
</svg>
