<?xml version="1.0" encoding="utf-8"?>
<!-- Generator: Adobe Illustrator 25.2.3, SVG Export Plug-In . SVG Version: 6.00 Build 0)  -->
<svg version="1.1" id="Layer_1" xmlns="http://www.w3.org/2000/svg" xmlns:xlink="http://www.w3.org/1999/xlink" x="0px" y="0px"
	 viewBox="0 0 19.9 21.2" style="enable-background:new 0 0 19.9 21.2;" xml:space="preserve">
<g id="Group_131" transform="translate(0.259 0.612)">
	<g id="Path_21">
		<path style="fill:#1A1A1A" d="M5.8,8.1L0.6,7.9C0.3,7.9,0,7.6,0,7.2L0.2,2c0-0.4,0.3-0.6,0.7-0.6s0.6,0.3,0.6,0.7c0,0,0,0,0,0L1.3,6.6
			l4.5,0.2c0.4,0,0.6,0.3,0.6,0.7C6.5,7.8,6.2,8.1,5.8,8.1z"/>
		<path style="fill:#1A1A1A" d="M5.8,8.3C5.8,8.3,5.8,8.3,5.8,8.3L0.6,8.1c-0.5,0-0.9-0.4-0.9-0.9L0,2c0-0.2,0.1-0.5,0.3-0.6
			c0.2-0.2,0.4-0.2,0.6-0.2c0.2,0,0.5,0.1,0.6,0.3c0.2,0.2,0.2,0.4,0.2,0.6L1.6,6.4l4.3,0.1c0.5,0,0.9,0.4,0.9,0.9
			C6.7,7.9,6.3,8.3,5.8,8.3z M5.8,7.8c0.2,0,0.4-0.2,0.4-0.4C6.2,7.2,6.1,7,5.8,7L1.1,6.8l0.2-4.8c0-0.1,0-0.2-0.1-0.3
			C1.1,1.7,1,1.7,0.9,1.7c-0.1,0-0.2,0-0.3,0.1S0.5,1.9,0.5,2.1L0.3,7.2c0,0.2,0.2,0.4,0.4,0.4L5.8,7.8z"/>
	</g>
	<g id="Path_29">
		<path style="fill:#1A1A1A" d="M10.9,18.4c-2.2,0.6-4.5,0.3-6.4-0.8c-0.2-0.1-0.2-0.3-0.1-0.5c0.1-0.2,0.3-0.2,0.5-0.1
			c3.7,2.1,8.4,0.9,10.5-2.8c0,0,0,0,0,0c2.1-3.7,0.9-8.4-2.8-10.5c-1.8-1-3.9-1.3-5.8-0.8c-2,0.5-3.7,1.8-4.7,3.6
			C2,6.6,1.8,6.7,1.6,6.6C1.4,6.5,1.4,6.3,1.5,6.1C3.8,2.1,8.9,0.7,13,3c0,0,0,0,0,0c4,2.3,5.4,7.5,3.1,11.5
			C14.9,16.4,13.1,17.9,10.9,18.4L10.9,18.4z"/>
		<path style="fill:#1A1A1A" d="M8.8,19.2c-1.6,0-3.1-0.4-4.5-1.2c-0.4-0.2-0.5-0.8-0.3-1.2c0.2-0.4,0.8-0.5,1.2-0.3c1.7,1,3.6,1.2,5.5,0.7
			c1.9-0.5,3.4-1.7,4.4-3.4c2-3.4,0.8-7.9-2.6-9.9c-1.7-1-3.6-1.2-5.5-0.7C5.1,3.8,3.5,5,2.5,6.7C2.3,7.1,1.8,7.2,1.4,7
			C0.9,6.8,0.8,6.3,1,5.8c1.2-2.1,3.1-3.5,5.4-4.2c2.3-0.6,4.7-0.3,6.8,0.9c2.1,1.2,3.5,3.1,4.2,5.4s0.3,4.7-0.9,6.8
			c-1,1.8-2.7,3.2-4.6,3.9l0,0l-0.8,0.2C10.3,19.1,9.5,19.2,8.8,19.2z"/>
	</g>
</g>
</svg>
