<?xml version="1.0" encoding="utf-8"?>
<!-- Generator: Adobe Illustrator 25.2.3, SVG Export Plug-In . SVG Version: 6.00 Build 0)  -->
<svg id="Layer_1" data-name="Layer 1" xmlns="http://www.w3.org/2000/svg" viewBox="0 0 20.1 19.7"><g id="Group_714" data-name="Group 714"><g id="Ellipse_90" data-name="Ellipse 90"><circle cx="7.2" cy="7.2" r="7.2" style="fill:none"/><path d="M7.2,14.3A7.1491,7.1491,0,0,1,0,7.2a7.2,7.2,0,0,1,14.4,0A7.1485,7.1485,0,0,1,7.2,14.3ZM7.2,1a6.2,6.2,0,1,0,6.2,6.2A6.2312,6.2312,0,0,0,7.2,1Z" style="fill:#1a1a1a"/></g><g id="Line_194" data-name="Line 194"><path d="M19.4,19.5a.6012.6012,0,0,1-.4-.1l-7.3-7.3a.495.495,0,0,1,.7-.7l7.3,7.3a.4833.4833,0,0,1,0,.7C19.7,19.5,19.5,19.5,19.4,19.5Z" style="fill:#1a1a1a"/></g></g></svg>
