<svg xmlns="http://www.w3.org/2000/svg" width="24" height="24" viewBox="0 0 24 24">
  <g id="settings" transform="translate(0 0)">
    <path id="Path_90" data-name="Path 90" d="M12.753,24H11.247a2.212,2.212,0,0,1-2.209-2.209v-.51a9.689,9.689,0,0,1-1.5-.625l-.361.361a2.209,2.209,0,0,1-3.125,0L2.982,19.953a2.209,2.209,0,0,1,0-3.125l.361-.361a9.69,9.69,0,0,1-.625-1.5h-.51A2.212,2.212,0,0,1,0,12.753V11.247A2.212,2.212,0,0,1,2.209,9.038h.51a9.692,9.692,0,0,1,.625-1.5l-.361-.361a2.209,2.209,0,0,1,0-3.125L4.047,2.982a2.209,2.209,0,0,1,3.125,0l.361.361a9.7,9.7,0,0,1,1.5-.625v-.51A2.212,2.212,0,0,1,11.247,0h1.506a2.212,2.212,0,0,1,2.209,2.209v.51a9.689,9.689,0,0,1,1.5.625l.361-.361a2.209,2.209,0,0,1,3.125,0l1.065,1.065a2.209,2.209,0,0,1,0,3.125l-.361.361a9.69,9.69,0,0,1,.625,1.5h.51A2.212,2.212,0,0,1,24,11.247v1.506a2.212,2.212,0,0,1-2.209,2.209h-.51a9.692,9.692,0,0,1-.625,1.5l.361.361a2.209,2.209,0,0,1,0,3.125l-1.065,1.065a2.209,2.209,0,0,1-3.125,0l-.361-.361a9.7,9.7,0,0,1-1.5.625v.51A2.212,2.212,0,0,1,12.753,24ZM7.768,19.18a8.288,8.288,0,0,0,2.148.892.7.7,0,0,1,.527.681v1.038a.8.8,0,0,0,.8.8h1.506a.8.8,0,0,0,.8-.8V20.752a.7.7,0,0,1,.527-.681,8.288,8.288,0,0,0,2.148-.892.7.7,0,0,1,.855.108l.735.735a.8.8,0,0,0,1.136,0l1.065-1.065a.8.8,0,0,0,0-1.136l-.736-.736a.7.7,0,0,1-.108-.855,8.287,8.287,0,0,0,.892-2.148.7.7,0,0,1,.681-.527h1.038a.8.8,0,0,0,.8-.8V11.247a.8.8,0,0,0-.8-.8H20.753a.7.7,0,0,1-.681-.527,8.288,8.288,0,0,0-.892-2.148.7.7,0,0,1,.108-.855l.735-.735a.8.8,0,0,0,0-1.136L18.958,3.977a.8.8,0,0,0-1.136,0l-.736.736a.7.7,0,0,1-.855.108,8.288,8.288,0,0,0-2.148-.892.7.7,0,0,1-.527-.681V2.209a.8.8,0,0,0-.8-.8H11.247a.8.8,0,0,0-.8.8V3.248a.7.7,0,0,1-.527.681,8.288,8.288,0,0,0-2.148.892.7.7,0,0,1-.855-.108l-.735-.735a.8.8,0,0,0-1.135,0L3.977,5.042a.8.8,0,0,0,0,1.136l.736.736a.7.7,0,0,1,.108.855,8.287,8.287,0,0,0-.892,2.148.7.7,0,0,1-.681.527H2.209a.8.8,0,0,0-.8.8v1.506a.8.8,0,0,0,.8.8H3.248a.7.7,0,0,1,.681.527,8.288,8.288,0,0,0,.892,2.148.7.7,0,0,1-.108.855l-.735.735a.8.8,0,0,0,0,1.136l1.065,1.065a.8.8,0,0,0,1.136,0l.736-.736a.706.706,0,0,1,.855-.108Z" fill="#1a1a1a"/>
    <path id="Path_91" data-name="Path 91" d="M150.471,156.342a5.871,5.871,0,1,1,5.871-5.871A5.878,5.878,0,0,1,150.471,156.342Zm0-10.161a4.29,4.29,0,1,0,4.29,4.29A4.295,4.295,0,0,0,150.471,146.181Z" transform="translate(-138.471 -138.471)" fill="#1a1a1a"/>
  </g>
</svg>
