<svg id="Layer_1" xmlns="http://www.w3.org/2000/svg" viewBox="0 0 19.1 18.1">
    <g id="Group_287" transform="translate(-333.941 -57.583)">
        <g id="Group_255" transform="translate(344.5 58.664)">
            <g id="Path_106">
                <path style="fill:#1A1A1A"
                    d="M3.7,15.8C3.3,15.8,3,15.4,3,15V0.7C3,0.3,3.3,0,3.7,0s0.8,0.3,0.8,0.8V15C4.5,15.4,4.2,15.8,3.7,15.8z" />
            </g>
            <g id="Path_107">
                <path style="fill:#1A1A1A" d="M0,4.6c-0.2,0-0.4-0.1-0.5-0.2c-0.3-0.3-0.3-0.8,0-1.1l4.3-4.4L8,3.4c0.3,0.3,0.3,0.8,0,1.1
				C7.7,4.7,7.2,4.7,7,4.4L3.7,1.1L0.5,4.4C0.4,4.6,0.2,4.6,0,4.6z" />
            </g>
        </g>
        <g id="Group_256" transform="translate(342.501 74.645) rotate(180)">
            <g id="Path_106-2">
                <path style="fill:#1A1A1A"
                    d="M3.7,0c0.4,0,0.8,0.3,0.8,0.8V15c0,0.4-0.3,0.8-0.8,0.8S3,15.4,3,15V0.7C3,0.3,3.3,0,3.7,0z" />
            </g>
            <g id="Path_107-2">
                <path style="fill:#1A1A1A" d="M3.7-1.1L8,3.4c0.3,0.3,0.3,0.8,0,1.1C7.7,4.7,7.2,4.7,7,4.4L3.7,1.1L0.5,4.4c-0.3,0.3-0.8,0.3-1.1,0
				c-0.3-0.3-0.3-0.8,0-1.1L3.7-1.1z" />
            </g>
        </g>
    </g>
</svg>
