<svg xmlns="http://www.w3.org/2000/svg" width="51.729" height="61.969" viewBox="0 0 51.729 61.969">
  <g id="Group_473" data-name="Group 473" transform="matrix(0.966, 0.259, -0.259, 0.966, 13.958, -3.782)">
    <g id="Group_469" data-name="Group 469" transform="matrix(-0.966, -0.259, 0.259, -0.966, 35.104, 29.061)">
      <path id="Path_164" data-name="Path 164" d="M13.658,22.767A4.271,4.271,0,0,1,10.1,20.861L.875,6.993A4.378,4.378,0,0,1,4.386,0h.187A4.374,4.374,0,0,1,6.751.581l6.064,3.478a1.883,1.883,0,0,0,1.872,0L20.751.581A4.376,4.376,0,0,1,22.929,0h0a4.378,4.378,0,0,1,3.512,6.993L17.214,20.861a4.269,4.269,0,0,1-3.556,1.906Z" transform="translate(0 0)" fill="#3ad8a8"/>
    </g>
    <g id="Group_470" data-name="Group 470" transform="matrix(0.966, 0.259, -0.259, 0.966, 5.892, 31.94)">
      <path id="Path_164-2" data-name="Path 164" d="M13.658,22.767A4.271,4.271,0,0,1,10.1,20.861L.875,6.993A4.378,4.378,0,0,1,4.386,0h.187A4.374,4.374,0,0,1,6.751.581l6.064,3.478a1.883,1.883,0,0,0,1.872,0L20.751.581A4.376,4.376,0,0,1,22.929,0h0a4.378,4.378,0,0,1,3.512,6.993L17.214,20.861a4.269,4.269,0,0,1-3.556,1.906Z" transform="translate(0 0)" fill="#ff8f74"/>
    </g>
  </g>
</svg>
