<svg height="13.812" viewBox="0 0 70 13.812" width="70" xmlns="http://www.w3.org/2000/svg"><g fill="#080909"><path d="m192.891 514.927-4.825-12.043a.711.711 0 0 1 .655-.978h1.563a.706.706 0 0 1 .661.461l3.4 9.128 3.4-9.128a.706.706 0 0 1 .661-.461h1.49a.711.711 0 0 1 .655.978l-4.825 12.043a.706.706 0 0 1 -.655.445h-1.527a.706.706 0 0 1 -.653-.445z" transform="translate(-188.013 -501.688)"/><path d="m278.839 514.57v-11.952a.709.709 0 0 1 .706-.711h5.328a5.205 5.205 0 0 1 3.864 1.36 4.087 4.087 0 0 1 1.112 3.012v.037a4.256 4.256 0 0 1 -.775 2.618 4.407 4.407 0 0 1 -2.124 1.516l2.551 3.715a.711.711 0 0 1 -.58 1.116h-1.561a.7.7 0 0 1 -.584-.312l-2.724-4.042h-2.425v3.642a.708.708 0 0 1 -.706.711h-1.377a.709.709 0 0 1 -.705-.71zm2.789-6.141h3.062a2.55 2.55 0 0 0 1.7-.533 1.782 1.782 0 0 0 .629-1.433v-.037a1.763 1.763 0 0 0 -.629-1.46 2.74 2.74 0 0 0 -1.759-.505h-3.008z" transform="translate(-246.499 -501.688)"/><path d="m323.622 514.57v-11.952a.709.709 0 0 1 .706-.711h1.4a.709.709 0 0 1 .706.711v11.952a.708.708 0 0 1 -.706.711h-1.4a.709.709 0 0 1 -.706-.711z" transform="translate(-275.389 -501.688)"/><path d="m357.064 513.078a7.31 7.31 0 0 1 -10.062.028 6.628 6.628 0 0 1 -2-4.876v-.037a6.665 6.665 0 0 1 2.014-4.885 7.31 7.31 0 0 1 10.062-.027 6.627 6.627 0 0 1 2 4.876v.037a6.664 6.664 0 0 1 -2.014 4.884zm-5-.569a3.831 3.831 0 0 0 2.926-1.24 4.287 4.287 0 0 0 1.158-3.039v-.037a4.328 4.328 0 0 0 -1.176-3.049 4.063 4.063 0 0 0 -5.869-.027 4.286 4.286 0 0 0 -1.157 3.04v.037a4.335 4.335 0 0 0 1.167 3.058 3.853 3.853 0 0 0 2.948 1.257z" transform="translate(-289.078 -501.287)"/><path d="m237.261 501.956 4.825 12.044a.711.711 0 0 1 -.654.978h-1.563a.706.706 0 0 1 -.661-.461l-3.4-9.128-3.4 9.128a.706.706 0 0 1 -.661.461h-1.491a.711.711 0 0 1 -.656-.978l4.825-12.042a.705.705 0 0 1 .654-.445h1.527a.706.706 0 0 1 .655.443z" transform="translate(-214.755 -501.432)"/></g></svg>